PathFileType	4	(X/Y/Z)	C:/Users/beibeiliu/ov580/test_trc/User1\sequence.9_training_dense_left.trc
DataRate	CameraRate	NumFrames	NumMarkers	Units	OrigDataRate	OrigDataStartFrame	OrigNumFrames
120	120	14	19	mm	120	79	314
Frame#	Time	ThumbCMC			ThumbMCP			ThumbIP			ThumbTip			IndexMCP			IndexPIP			IndexTip			MiddleMCP			MiddlePIP			MiddleTip			RingMCP			RingPIP			RingTip			PinkyMCP			PinkyPIP			PinkyTip			BackHand1			BackHand2			BackHand3	
		X0	Y0	Z0	X1	Y1	Z1	X2	Y2	Z2	X3	Y3	Z3	X4	Y4	Z4	X5	Y5	Z5	X6	Y6	Z6	X7	Y7	Z7	X8	Y8	Z8	X9	Y9	Z9	X10	Y10	Z10	X11	Y11	Z11	X12	Y12	Z12	X13	Y13	Z13	X14	Y14	Z14	X15	Y15	Z15	X16	Y16	Z16	X17	Y17	Z17	X18	Y18	Z18	
78	0.65	-162.196	114.243	-4.048	-148.953	101.465	-27.4955	-135.454	92.5441	-46.5421	-122.704	82.1781	-59.4927	-158.242	156.002	-84.5952	-153.427	161.869	-107.766	-155.523	170.547	-133.188	-173.454	183.586	-80.3175	-166.888	194.388	-110.142	-163.565	204.614	-134.333	-191.467	192.281	-70.208	-187.519	209.331	-94.6403	-183.581	218.29	-114.42	-223.531	194.008	-52.4888	-229.483	211.25	-67.0535	-226.757	229.285	-75.3977	-194.588	175.311	-19.8168	-195.759	171.513	9.90211	-169.191	151.437	-12.2428	
79	0.658333	-163.597	118.681	-6.54074	-148.575	104.113	-26.4721	-131.424	95.4756	-46.4617	-119.444	85.7206	-58.7977	-160.384	160.521	-82.6182	-156.163	169.504	-111.75	-155.272	175.39	-132.806	-174.206	187.048	-82.6496	-168.44	194.658	-106.577	-167.318	209.356	-132.548	-190.867	196.75	-74.8005	-189.277	210.586	-94.6583	-183.137	220.044	-114.703	-225.293	198.025	-53.1383	-231.853	210.786	-62.6443	-230.121	229.893	-74.0114	-197.613	179.412	-19.3068	-194.154	174.679	9.82549	-168.923	156.681	-12.2287	
80	0.666667	-164.642	123.575	-6.65314	-147.117	107.204	-23.2492	-132.731	103.838	-47.3334	-120.089	92.5645	-58.5836	-159.914	165.762	-85.8761	-157.858	173.933	-111.778	-156.094	178.824	-136.457	-177.145	189.342	-83.7514	-172.707	200.354	-108.949	-169.693	210.416	-133.417	-194.752	195.658	-72.7631	-190.272	208.087	-94.0673	-184.656	221.725	-118.317	-232.549	200.913	-53.7086	-234.469	209.032	-66.0309	-236.264	230.479	-73.3772	-199.825	185.924	-23.8384	-197.311	174.365	9.89198	-171.228	159.456	-11.3726	
81	0.675	-160.251	126.981	-4.41726	-144.595	114.777	-24.9638	-128.614	110.85	-46.0708	-116.032	100.852	-56.6285	-163.928	167.866	-83.7025	-163.403	177.262	-108.281	-164.628	185.093	-135.997	-180.136	189.456	-85.2383	-176.149	199.528	-109.758	-179.35	214.834	-134.341	-203.541	197.279	-72.8382	-200.477	211.31	-93.9443	-193.508	223.533	-119.695	-236.254	196.478	-57.4151	-242.732	207.796	-66.6874	-248.864	229.042	-73.4637	-207.098	184.975	-21.8541	-206.922	178.76	9.35238	-175.8	164.057	-12.3381	
82	0.683333	-159.724	136.811	-4.57556	-144.849	124.916	-21.8713	-126.371	121.897	-46.8245	-111.915	116.203	-59.0117	-167.183	174.032	-84.2819	-166.782	180.562	-108.723	-172.187	188.362	-134.376	-190.29	192.161	-82.0515	-188.053	204.153	-112.591	-191.675	216.27	-137.938	-213.241	197.066	-74.3858	-214.738	210.461	-96.1408	-209.682	220.315	-120.268	-244.511	187.388	-52.9278	-255.008	200.436	-64.5933	-261.988	218.166	-74.7263	-211.177	184.135	-25.3231	-209.959	178.969	9.42139	-180.926	171.019	-9.81429	
83	0.691667	-162.545	145.182	-1.28791	-139.823	135.948	-20.9693	-125.966	135.316	-43.9545	-107.266	130.348	-56.5743	-173.835	178.627	-82.7654	-175.335	185.992	-109.364	-178.003	191.754	-134.01	-202.632	196.354	-85.365	-204.158	204.591	-111.21	-207.855	213.16	-137.341	-224.492	193.058	-73.3831	-228.616	205.886	-96.5013	-231.512	217.353	-121.454	-254.798	179.094	-52.6018	-266.857	188.427	-63.6459	-273.64	208.014	-78.7363	-223.309	181.714	-24.617	-221.995	177.71	9.81833	-186.756	175.902	-11.5166	
84	0.7	-162.227	157.194	-3.60194	-139.638	149.987	-21.2453	-120.677	151.045	-40.2717	-106.026	146.806	-53.0122	-181.228	182.488	-82.7607	-184.512	187.386	-112.999	-184.787	191.304	-133.794	-209.368	192.344	-87.7681	-215.355	199.638	-110.683	-218.469	207.719	-140.336	-236.038	187.828	-75.1032	-239.887	199.463	-101.403	-244.923	207.8	-124.659	-258.8	171.091	-56.1854	-274.069	176.115	-65.3889	-282.57	193.315	-79.671	-231.615	179.911	-25.07	-227.33	174.658	11.0097	-193.001	180.037	-11.5743	
85	0.708333	-165.495	165.014	-0.927861	-144.86	161.566	-21.3472	-127.718	163.708	-40.1648	-107.723	165.204	-52.4876	-190.533	183.476	-86.021	-192.629	184.961	-108.842	-195.986	188.53	-135.299	-218.571	188.164	-86.1966	-223.454	193.794	-115.699	-230.037	197.512	-141.048	-245.412	178.989	-75.8864	-248.325	188.582	-101.21	-259.431	193.87	-126.213	-266.433	159.102	-55.0966	-276.47	162.643	-66.7934	-294.744	177.245	-81.3158	-237.615	171.792	-23.602	-232.847	172.768	6.75784	-200.07	181.245	-9.18066	
86	0.716667	-172.659	172.381	-0.427314	-148.026	173.477	-19.9434	-129.952	179.182	-36.1064	-111.324	183.762	-53.6292	-198.533	182.671	-85.1198	-197.172	186.141	-112.137	-202.907	186.442	-138.502	-229.597	180.51	-85.6066	-232.15	184.845	-113.181	-242.681	188.742	-145.544	-247.976	168.78	-77.2223	-259.08	175.462	-104.481	-266.248	177.787	-124.476	-262.974	146.725	-56.2125	-277.924	148.699	-72.3471	-296.655	154.725	-82.8629	-241.308	163.542	-23.0843	-238.338	168.778	5.6529	-207.784	183.736	-11.152	
87	0.725	-177.457	179.063	-0.265251	-152.731	184.327	-18.7115	-139.851	189.296	-39.5686	-119.149	197.637	-49.5812	-204.957	182.955	-88.0117	-205.978	182.567	-111.666	-209.335	182.305	-138.197	-232.728	177.535	-89.445	-236.6	179.894	-115.474	-244.598	178.622	-142.823	-253.889	158.711	-76.78	-260.788	164.385	-102.729	-269.451	164.826	-128.45	-261.621	135.305	-56.6637	-279.168	132.444	-71.7817	-295.024	135.254	-86.4593	-246.067	158.842	-24.5368	-244.065	160.915	9.61242	-216.607	182.185	-11.6732	
88	0.733333	-184.564	184.333	-2.16501	-162.3	190.939	-18.1727	-145.184	203.435	-40.0591	-129.737	208.263	-54.3727	-210.555	180.164	-85.3485	-209.984	181.051	-115.261	-215.523	176.549	-136.45	-239.958	168.523	-91.4413	-243.507	169.674	-118.13	-247.768	169.742	-143.059	-253.905	147.841	-76.3371	-260.621	151.872	-102.929	-268.872	149.423	-128.076	-259.05	125.833	-57.7586	-270.915	120.646	-72.4859	-288.952	118.072	-87.2946	-246.37	153.937	-23.722	-248.456	155.245	7.33568	-221.991	180.145	-16.2394	
89	0.741667	-192.047	186.433	-2.2069	-170.952	196.927	-18.4758	-156.638	207.734	-40.0971	-141.218	217.74	-48.1102	-214.676	177.895	-86.4281	-214.232	176.795	-114.844	-215.956	175.596	-139.941	-241.153	162.122	-91.8528	-242.502	163.462	-118.809	-249.528	158.447	-145.237	-250.828	141.445	-80.0249	-259.319	139.205	-105.109	-262.206	137.09	-130.3	-254.741	114.233	-55.0442	-265.024	107.695	-74.209	-279.986	104.527	-94.7656	-248.856	144.729	-24.7809	-251.439	148.333	7.69061	-228.677	178.212	-15.786	
90	0.75	-197.751	191.094	1.04764	-178.615	200.435	-18.1769	-163.665	217.531	-39.1511	-151.691	226.926	-51.0181	-218.807	174.627	-84.8379	-217.441	173.474	-110.585	-217.138	168.246	-140.089	-238.236	156.408	-88.2011	-240.202	154.525	-115.934	-244.164	148.476	-148.3	-246.373	134.352	-78.5185	-252.927	129.261	-107.07	-257.006	121.561	-135.112	-250.665	104.804	-58.7516	-255.889	100.401	-74.1698	-267.831	93.4764	-93.3676	-245.344	143.345	-25.6668	-251.24	142.399	4.75994	-232.909	177.274	-14.6449	
91	0.758333	-205.541	192.817	0.0167499	-187.001	208.486	-16.1131	-174.683	221.696	-36.0255	-163.296	231.451	-48.2672	-217.965	173.425	-90.2364	-217.068	168.032	-112.654	-214.695	163.017	-138.968	-235.544	152.299	-89.2335	-235.54	147.602	-121.897	-236.48	138.715	-149.311	-243.022	125.081	-84.8057	-245.17	116.846	-106.385	-244.704	108.401	-131.897	-241.007	101.75	-55.9065	-246.711	88.0159	-73.7392	-258.15	77.9069	-94.0462	-246.634	138.36	-27.7351	-252.629	140.89	2.89321	-235.841	170.732	-17.8561	
